<svg width="21" height="24" viewBox="0 0 21 24" fill="none" xmlns="http://www.w3.org/2000/svg">
<path d="M20.4707 0.882324V19.8235H6.35306C5.72902 19.8235 5.13054 19.5741 4.68928 19.13C4.24802 18.686 4.00012 18.0838 4.00012 17.4559V3.24997C4.00012 2.62203 4.24802 2.01981 4.68928 1.57579C5.13054 1.13177 5.72902 0.882324 6.35306 0.882324H20.4707Z" fill="#3B61FF"/>
<path d="M17.4856 4.17627V22.4117H3.80897C3.20443 22.4117 2.62465 22.1716 2.19717 21.7441C1.76969 21.3166 1.52954 20.7368 1.52954 20.1323V6.4557C1.52954 5.85116 1.76969 5.27138 2.19717 4.8439C2.62465 4.41642 3.20443 4.17627 3.80897 4.17627H17.4856Z" stroke="#2F2F2F" stroke-width="2.05882" stroke-linecap="round" stroke-linejoin="round"/>
<path d="M17.4856 17.8531H3.80897C3.20443 17.8531 2.62465 18.0932 2.19717 18.5207C1.76969 18.9482 1.52954 19.528 1.52954 20.1325M6.08841 8.73535H12.9267" stroke="#2F2F2F" stroke-width="2.05882" stroke-linecap="round" stroke-linejoin="round"/>
</svg>
