<svg width="67" height="68" viewBox="0 0 67 68" fill="none" xmlns="http://www.w3.org/2000/svg">
<path d="M25.1249 14.0967H19.5416C18.0608 14.0967 16.6407 14.6907 15.5936 15.7482C14.5465 16.8056 13.9583 18.2398 13.9583 19.7353V53.567C13.9583 55.0624 14.5465 56.4966 15.5936 57.5541C16.6407 58.6115 18.0608 59.2056 19.5416 59.2056H47.4583C48.939 59.2056 50.3592 58.6115 51.4063 57.5541C52.4533 56.4966 53.0416 55.0624 53.0416 53.567V19.7353C53.0416 18.2398 52.4533 16.8056 51.4063 15.7482C50.3592 14.6907 48.939 14.0967 47.4583 14.0967H41.8749" stroke="#9F9F9F" stroke-width="4" stroke-linecap="round" stroke-linejoin="round"/>
<path d="M36.2917 8.45801H30.7083C27.6247 8.45801 25.125 10.9825 25.125 14.0966C25.125 17.2107 27.6247 19.7352 30.7083 19.7352H36.2917C39.3753 19.7352 41.875 17.2107 41.875 14.0966C41.875 10.9825 39.3753 8.45801 36.2917 8.45801Z" stroke="#9F9F9F" stroke-width="4" stroke-linecap="round" stroke-linejoin="round"/>
<path d="M25.125 33.8318H25.1529M32.7637 33.8318H41.875M25.125 45.109H25.1529M32.7637 45.109H41.875" stroke="#9F9F9F" stroke-width="4" stroke-linecap="round" stroke-linejoin="round"/>
</svg>
