<svg width="125" height="116" viewBox="0 0 125 116" fill="none" xmlns="http://www.w3.org/2000/svg">
<path d="M29.2892 47.5239C41.0284 49.1921 54.6705 50.8757 63.5822 51.909C65.5378 52.1357 68.3233 51.6005 69.4852 50.9119C71.6215 49.6459 85.6816 41.201 100.468 31.9185M29.2892 47.5239L33.2203 70.7974C33.378 71.7308 33.4477 73.5013 35.4043 74.2686C37.1154 74.9396 75.6522 94.9906 103.855 61.4267C105.439 59.5416 104.567 56.1863 104.357 54.9418C104.143 53.6727 101.878 40.8927 100.468 31.9185M29.2892 47.5239C21.8123 46.4613 15.1074 45.4051 10.8885 44.5271M100.468 31.9185C106.591 28.0748 114.708 22.6147 119.191 19.796C120.587 18.6002 120.53 16.3698 118.508 15.7513C115.911 14.9569 80.8992 8.13028 62.3289 4.76022C62.3289 4.76022 60.8308 4.37326 59.4277 4.61025C58.3251 4.79648 56.7367 5.7048 56.7367 5.7048C52.908 7.6315 21.445 28.1993 5.79237 38.9499C4.34407 39.8345 4.0351 42.1884 6.52809 43.3056C7.56525 43.7705 8.64941 44.0612 10.8885 44.5271M10.8885 44.5271L19.1329 93.3371M19.1329 93.3371C17.9322 93.7959 15.873 94.8477 15.567 96.8194C15.325 98.3782 17.2919 103.248 14.0413 108.597C12.721 110.77 20.9837 112.381 25.8565 110.442C30.0484 108.774 32.6647 105.345 32.8353 104.463C33.0934 104.099 33.0777 102.75 32.1567 102.337C31.1196 101.873 26.8659 99.391 25.3032 95.8149C24.0531 92.954 20.6337 92.7636 19.1329 93.3371Z" stroke="white" stroke-opacity="0.93" stroke-width="8" stroke-linejoin="round"/>
</svg>
