<svg width="26" height="26" viewBox="0 0 26 26" fill="none" xmlns="http://www.w3.org/2000/svg">
<path d="M23.8789 22.951H12.3205L25.2507 10.0054C25.488 9.77142 25.6765 9.49255 25.8051 9.18504C25.9338 8.87752 26 8.54751 26 8.21416C26 7.88082 25.9338 7.5508 25.8051 7.24329C25.6765 6.93577 25.488 6.6569 25.2507 6.42287L19.5731 0.74411C19.3383 0.508262 19.0592 0.321121 18.7518 0.193427C18.4445 0.065733 18.115 0 17.7822 0C17.4494 0 17.1199 0.065733 16.8125 0.193427C16.5052 0.321121 16.2261 0.508262 15.9913 0.74411L0.749392 15.9891C0.512044 16.2231 0.323567 16.502 0.194918 16.8095C0.0662681 17.117 1.19378e-05 17.4471 0 17.7804V23.4592C0.00333854 24.132 0.27205 24.7763 0.747729 25.2521C1.22341 25.7279 1.86761 25.9967 2.54031 26H23.8789C24.2832 26 24.6709 25.8394 24.9567 25.5535C25.2425 25.2676 25.4031 24.8798 25.4031 24.4755C25.4031 24.0712 25.2425 23.6834 24.9567 23.3975C24.6709 23.1116 24.2832 22.951 23.8789 22.951ZM17.7822 3.25954L22.7358 8.21416L20.8306 10.1198L15.8769 5.16516L17.7822 3.25954ZM3.04837 22.951V17.9964L13.7177 7.32487L18.6713 12.2795L8.00198 22.951H3.04837Z" fill="#2F2F2F"/>
</svg>
