<svg width="189" height="191" viewBox="0 0 189 191" fill="none" xmlns="http://www.w3.org/2000/svg">
<path d="M85.0874 62.3393C85.5919 62.224 89.0082 57.8996 87.8983 53.3014C86.673 48.2707 81.109 45.9788 81.109 45.9788C81.109 45.9788 77.2459 50.6779 78.5576 56.0545C79.682 60.6384 84.4244 62.5123 85.0874 62.3393Z" fill="#A6CEE4"/>
<path d="M113.873 53.8927C113.441 53.6044 107.934 54.008 105.311 57.9287C102.428 62.2243 104.489 67.8748 104.489 67.8748C104.489 67.8748 110.558 67.5433 113.642 62.9594C116.28 59.0387 114.45 54.2819 113.873 53.8927Z" fill="#A6CEE4"/>
<path d="M63.1627 93.4026C63.3934 92.9413 62.2834 87.5359 58.06 85.4313C53.4185 83.125 48.0851 85.907 48.0851 85.907C48.0851 85.907 49.195 91.8891 54.1392 94.3396C58.3627 96.4441 62.86 94.0224 63.1627 93.4026Z" fill="#A6CEE4"/>
<path d="M61.8656 123.111C62.3701 123.255 67.4728 121.18 68.7557 116.639C70.1684 111.652 66.4638 106.924 66.4638 106.924C66.4638 106.924 60.7845 109.115 59.271 114.419C57.9881 118.96 61.2025 122.924 61.8656 123.111Z" fill="#A6CEE4"/>
<path d="M125.174 94.4405C125.188 94.9595 128.691 99.2118 133.419 99.082C138.594 98.9523 142.01 93.9937 142.01 93.9937C142.01 93.9937 138.233 89.2225 132.713 89.3666C127.985 89.4963 125.159 93.7486 125.174 94.4405Z" fill="#A6CEE4"/>
<path d="M118.4 107.169C117.938 107.399 115.488 112.329 117.535 116.596C119.783 121.266 125.693 122.347 125.693 122.347C125.693 122.347 128.49 116.942 126.097 111.969C124.065 107.702 119.034 106.866 118.4 107.169Z" fill="#A6CEE4"/>
<path d="M89.6998 86.8585C89.3106 86.527 83.7898 86.3252 80.7628 89.9432C77.433 93.9072 78.8745 99.7451 78.8745 99.7451C78.8745 99.7451 84.943 100.077 88.5034 95.8532C91.5449 92.2351 90.2476 87.3053 89.6998 86.8585Z" fill="#A6CEE4"/>
<path d="M60.4386 68.5375C59.9341 68.6816 56.6476 73.0925 57.8728 77.6475C59.2422 82.6493 64.8639 84.7827 64.8639 84.7827C64.8639 84.7827 68.5973 79.9826 67.1558 74.6492C65.9018 70.0942 61.1161 68.3501 60.4386 68.5375Z" fill="white"/>
<path d="M139.574 111.752C139.848 111.306 139.272 105.828 135.279 103.32C130.882 100.567 125.304 102.815 125.304 102.815C125.304 102.815 125.823 108.869 130.508 111.81C134.515 114.318 139.214 112.343 139.574 111.752Z" fill="white"/>
<path d="M96.2872 79.6079C96.3593 80.1268 100.28 83.9899 104.965 83.3845C110.096 82.7214 112.994 77.4457 112.994 77.4457C112.994 77.4457 108.741 73.0925 103.264 73.7988C98.5792 74.4042 96.2008 78.9304 96.2872 79.6079Z" fill="white"/>
<path d="M128.907 87.666C129.398 87.8246 134.558 85.8498 135.942 81.338C137.47 76.3794 133.852 71.5793 133.852 71.5793C133.852 71.5793 128.129 73.6406 126.515 78.9308C125.116 83.4425 128.23 87.4642 128.907 87.666Z" fill="white"/>
<path d="M62.6146 98.1165C62.2543 97.7417 56.7911 96.9778 53.4037 100.264C49.6848 103.868 50.5208 109.821 50.5208 109.821C50.5208 109.821 56.5317 110.773 60.4957 106.938C63.8975 103.652 63.1047 98.6066 62.6146 98.1165Z" fill="white"/>
<path d="M74.7665 109.504C74.262 109.576 70.4277 113.54 71.1052 118.225C71.8259 123.356 77.1449 126.167 77.1449 126.167C77.1449 126.167 81.4404 121.857 80.6621 116.394C79.999 111.724 75.4584 109.403 74.7665 109.504Z" fill="white"/>
<path d="M71.9126 99.774C72.4316 99.7596 76.6839 96.2424 76.5541 91.5288C76.4244 86.354 71.4658 82.9377 71.4658 82.9377C71.4658 82.9377 66.6945 86.7144 66.8531 92.2351C66.9684 96.9631 71.2207 99.7884 71.9126 99.774Z" fill="white"/>
<path d="M93.8226 78.6854C94.3271 78.5845 97.9596 74.4475 97.0803 69.806C96.1145 64.7177 90.6802 62.1519 90.6802 62.1519C90.6802 62.1519 86.5865 66.6492 87.6099 72.0691C88.5036 76.7106 93.1451 78.8151 93.8226 78.6854Z" fill="white"/>
<path d="M88.6187 79.7808C88.7341 79.2763 86.4277 74.2744 81.8295 73.1934C76.7844 72.0114 72.2294 75.9465 72.2294 75.9465C72.2294 75.9465 74.6798 81.5106 80.0565 82.779C84.6547 83.8457 88.4602 80.4583 88.6187 79.7808Z" fill="white"/>
<path d="M81.3106 69.2581C81.5556 68.7969 80.5322 63.377 76.352 61.2004C71.7537 58.8076 66.3771 61.5031 66.3771 61.5031C66.3771 61.5031 67.3861 67.4995 72.287 70.0365C76.4673 72.2131 80.9935 69.8635 81.3106 69.2581Z" fill="white"/>
<path d="M111.12 71.9682C111.293 72.4583 115.978 75.37 120.403 73.7556C125.275 71.9826 126.933 66.2023 126.933 66.2023C126.933 66.2023 121.83 62.887 116.641 64.7753C112.216 66.3897 110.89 71.3195 111.12 71.9682Z" fill="white"/>
<path d="M100.179 86.6422C100.511 86.2386 105.916 85.1575 109.506 88.2278C113.441 91.6008 112.965 97.5972 112.965 97.5972C112.965 97.5972 107.026 98.909 102.832 95.3197C99.2425 92.2494 99.7326 87.1611 100.179 86.6422Z" fill="white"/>
<path d="M118.5 94.7144C119.005 94.8153 123.92 92.2928 124.799 87.6513C125.765 82.5629 121.657 78.1809 121.657 78.1809C121.657 78.1809 116.194 80.862 115.156 86.2819C114.277 90.909 117.823 94.5847 118.5 94.7144Z" fill="white"/>
<path d="M107.257 125.778C107.761 125.879 112.662 123.356 113.556 118.715C114.522 113.626 110.414 109.244 110.414 109.244C110.414 109.244 104.951 111.925 103.913 117.345C103.033 121.972 106.579 125.648 107.257 125.778Z" fill="white"/>
<path d="M96.7342 63.0743C97.2531 63.1176 101.851 60.0617 102.212 55.3625C102.615 50.2021 98.0459 46.2958 98.0459 46.2958C98.0459 46.2958 92.9143 49.5535 92.4819 55.0598C92.1071 59.7734 96.0279 63.0167 96.7342 63.0743Z" fill="white"/>
<path d="M122.089 99.8748C121.96 98.9378 121.297 98.3757 120.547 98.5775C111.941 101.705 106.608 102.268 98.1755 103.046L96.7629 102.714C96.0422 102.671 95.7971 102.08 95.6962 101.691L95.307 84.4224C95.307 82.9088 94.7016 81.6692 93.9377 81.6692C93.1881 81.6692 92.5683 82.9088 92.5683 84.4224L91.7611 101.561C90.9971 103.969 88.8926 103.767 88.8926 103.767L88.907 103.81C81.3249 103.983 77.4906 104.084 69.6347 101.994C68.5392 101.72 67.6887 101.489 67.6887 102.282C67.7031 103.089 68.5968 104.286 69.7356 104.574C78.7303 108.235 83.1123 107.543 91.3863 109.547L89.498 139.558C89.3394 141.619 88.1142 142.081 88.1142 142.081H98.6945C98.1323 141.821 97.599 140.524 97.3395 139.832L95.8548 109.331C105.397 107.284 111.322 105.496 120.936 101.821C121.7 101.633 122.205 100.826 122.089 99.8748Z" fill="white"/>
<path d="M141.174 139.89L143.408 142.081C143.999 142.672 144.489 143.176 144.835 143.594C145.196 144.027 145.441 144.459 145.556 144.906L146.435 143.998C146.334 143.58 146.118 143.133 145.801 142.643C145.484 142.153 145.052 141.648 144.504 141.101C144.504 141.101 142.212 138.852 142.197 138.837C141.952 138.621 141.679 138.506 141.39 138.52C141.088 138.535 140.799 138.679 140.554 138.924L135.61 143.983L136.388 144.762L141.174 139.89Z" fill="white"/>
<path d="M145.499 146.362L142.111 143.032L141.102 144.056L144.49 147.385L143.61 148.279L140.223 144.964L139.214 145.987L142.601 149.317L141.174 150.773L141.924 151.508L149.074 144.243H149.059L148.31 143.494L145.499 146.362Z" fill="white"/>
<path d="M97.2242 158.513V161.569H95.7106V158.513H94.298V164.654C94.125 164.74 93.9088 164.812 93.6205 164.885C93.3322 164.942 93.0151 164.985 92.6836 164.985H90.3917V159.897H93.0151V158.902H88.9214V164.841C88.9214 165.216 89.0367 165.504 89.2673 165.721C89.498 165.922 89.7863 166.023 90.1466 166.023H92.6115C92.9719 166.023 93.3034 165.98 93.5773 165.894C93.8223 165.821 94.0818 165.692 94.298 165.548V169.699H95.7106V162.679H97.2242V169.699H98.6368V158.528H97.2242V158.513Z" fill="white"/>
<path d="M72.2005 154.347L73.6708 155.025C73.6564 155.025 68.9861 165.1 69.0005 165.129L67.5446 164.452C67.5734 164.452 72.2149 154.362 72.2005 154.347ZM68.323 154.045L67.8473 155.068C67.4005 156.019 67.2419 156.971 67.4581 157.951C67.6743 158.945 68.0779 159.652 68.6833 160.084L67.7032 160.488C67.2995 160.113 66.7806 159.681 66.4347 158.931C66.0887 158.182 65.9878 157.446 66.0167 156.942C65.6563 157.302 65.022 157.706 64.2292 157.908C63.4364 158.124 62.7734 158.037 62.2112 157.951L61.9229 156.956C62.6581 157.144 63.4653 157 64.3446 156.509C65.2238 156.034 65.8437 155.299 66.2905 154.347L66.7662 153.324C66.7662 153.324 64.8058 152.416 64.7914 152.43L65.2094 151.522L70.7014 154.059L70.2834 154.967C70.2689 154.953 68.323 154.045 68.323 154.045Z" fill="white"/>
<path d="M125.808 160.2C125.679 159.854 125.462 159.623 125.174 159.508C124.886 159.393 124.569 159.407 124.237 159.537L117.779 161.987L118.169 163.025L124.367 160.676L125.534 163.732L126.933 163.198L125.808 160.2Z" fill="white"/>
<path d="M123.66 154.564L122.796 152.258L121.383 152.791L123.704 158.903L125.116 158.369L124.021 155.501L125.693 154.867L125.333 153.93L123.66 154.564Z" fill="white"/>
<path d="M120.158 155.068L120.749 154.838L120.403 153.915L118.039 154.809L117.664 153.814L116.223 154.362L116.396 154.823L116.598 155.342L114.248 156.236L114.594 157.159L115.199 156.957L116.122 156.611C115.877 156.957 115.718 157.331 115.632 157.735C115.56 158.139 115.603 158.542 115.747 158.932C115.992 159.595 116.468 160.056 117.16 160.33C117.852 160.604 118.572 160.604 119.293 160.33C120.028 160.056 120.562 159.58 120.908 158.917C121.239 158.254 121.282 157.591 121.037 156.928C120.893 156.539 120.663 156.222 120.331 155.962C120.028 155.717 119.682 155.544 119.293 155.458C119.264 155.443 119.25 155.443 119.221 155.443L120.129 155.097C120.158 155.068 120.158 155.068 120.158 155.068ZM119.697 158.586C119.553 158.975 119.308 159.22 118.947 159.364C118.601 159.494 118.255 159.465 117.895 159.277C117.535 159.09 117.275 158.802 117.131 158.413C116.987 158.023 116.987 157.634 117.131 157.245C117.275 156.856 117.52 156.596 117.866 156.481C118.226 156.351 118.572 156.38 118.933 156.568C119.293 156.755 119.538 157.043 119.697 157.432C119.841 157.822 119.841 158.196 119.697 158.586Z" fill="white"/>
<path d="M53.8079 143.825L52.6547 142.657C52.6547 142.672 51.8187 143.493 51.8187 143.493L50.5213 142.167L51.1556 141.547L47.2637 137.583C47.2637 137.598 44.3375 140.452 44.3375 140.452C44.078 140.711 43.9483 140.985 43.9483 141.274C43.9483 141.562 44.0924 141.85 44.3519 142.11L47.4078 145.223L48.1285 144.517L49.4403 145.843L48.3015 146.953L49.4403 148.106C49.4403 148.106 53.7935 143.81 53.8079 143.825ZM46.9898 143.364L45.3609 141.706L47.6961 139.414L49.3249 141.072L46.9898 143.364ZM50.2186 145.079L48.9213 143.753L49.7574 142.931L51.0547 144.257L50.2186 145.079Z" fill="white"/>
<path d="M47.9843 148.005C47.9123 147.212 47.5807 146.52 46.9897 145.901C46.3987 145.295 45.6924 144.949 44.914 144.877C44.1212 144.805 43.4726 145.021 42.9536 145.526C42.4347 146.03 42.2185 146.679 42.2762 147.472C42.3482 148.25 42.6798 148.956 43.2708 149.576C43.8762 150.182 44.5681 150.528 45.3609 150.614C46.1393 150.686 46.8023 150.47 47.3213 149.966C47.8114 149.432 48.042 148.784 47.9843 148.005ZM45.0005 149.274C44.5681 149.317 44.2077 149.187 43.9338 148.899C43.66 148.611 43.5446 148.265 43.5735 147.818C43.6167 147.385 43.7897 147.011 44.1068 146.693C44.4239 146.376 44.8131 146.203 45.2456 146.174C45.6924 146.131 46.0384 146.261 46.3267 146.535C46.6005 146.823 46.7303 147.183 46.6726 147.616C46.6294 148.048 46.442 148.423 46.1249 148.74C45.8077 149.072 45.433 149.245 45.0005 149.274Z" fill="white"/>
<path d="M24.4596 102.801C24.4596 102.801 24.1713 102.801 23.811 102.815C23.9119 102.787 24.1281 102.714 24.1281 102.714L24.4884 102.585L31.1768 100.134L31.0759 98.8946L23.7389 97.3955C23.7389 97.3955 23.6236 97.3811 23.465 97.3522C23.5803 97.3378 23.811 97.309 23.811 97.309L30.8597 96.1847L30.7444 94.6855L30.5426 94.7144L21.0001 96.2856L21.1587 98.2604L27.7029 99.5721C27.7317 99.5721 28.0921 99.6297 28.4669 99.6874C28.0488 99.8171 27.6164 99.9469 27.6164 99.9469L21.447 102.196L21.6055 104.156L31.4795 104.242L31.3642 102.787L24.4596 102.801Z" fill="white"/>
<path d="M22.5134 79.8243L22.4701 80.127L22.2539 81.5253L25.6557 83.9325C25.6701 83.9469 26.0305 84.192 26.3044 84.3793C25.9729 84.4802 25.5548 84.5956 25.5548 84.5956L21.6052 85.864L21.3314 87.6659C21.3314 87.6659 27.6017 85.446 27.6882 85.4172C27.7747 85.4316 31.5369 85.9938 31.5369 85.9938L31.7675 84.4658C31.7675 84.4658 28.0774 83.9037 27.9909 83.8892C27.9188 83.8316 22.5134 79.8243 22.5134 79.8243Z" fill="white"/>
<path d="M32.0706 66.6926C30.6147 66.1304 29.4327 65.9862 28.3805 66.2313C27.5012 66.4331 26.348 67.0097 25.7426 68.5809C24.8777 70.8584 26.1462 72.9629 29.0435 74.0728C30.5859 74.6638 31.9841 74.7647 33.094 74.3611C34.1175 73.9863 34.8814 73.2224 35.2851 72.1701C35.6454 71.2043 35.6454 70.4115 35.2851 69.4601C34.7805 68.1917 33.8292 67.3556 32.0706 66.6926ZM34.1463 71.6656C33.8724 72.3575 33.2238 72.9629 32.6184 73.0638C31.9265 73.1791 30.6868 72.9485 29.4183 72.4584C28.3516 72.0548 27.6742 71.6367 27.2273 71.1322C26.7805 70.6133 26.6651 69.7773 26.9534 69.0277C27.2706 68.2061 27.9336 67.7016 28.7697 67.6295C29.4616 67.5718 30.3697 67.7736 31.667 68.2637C33.1949 68.8547 33.7283 69.3304 34.0454 69.8638C34.3625 70.4259 34.3914 71.0025 34.1463 71.6656Z" fill="white"/>
<path d="M35.2847 51.3409L34.564 52.422L39.0181 55.3482C39.0181 55.3482 39.9406 55.9104 40.6614 56.3428C40.056 56.2419 39.4505 56.141 39.4505 56.141L32.5748 55.3914L31.6811 56.732L39.8397 62.1951L40.7046 60.9122L35.9622 57.8131C35.9622 57.8131 35.2271 57.3662 34.6072 56.9914C35.0253 57.0491 35.5298 57.1212 36.1208 57.1788L42.7371 57.8851L43.5587 56.6455L35.4001 51.1824L35.2847 51.3409Z" fill="white"/>
<path d="M46.9176 44.941L48.0419 45.6761C48.0419 45.6761 49.1807 44.595 49.3969 44.3932C49.6131 44.6095 51.0402 46.1086 51.1843 46.2671C51.069 46.6563 50.8239 47.0455 50.4492 47.4059C49.8149 48.0113 48.9068 48.3428 48.2582 48.2131C47.5518 48.069 46.7158 47.5068 45.8942 46.6419C45.2887 46.0077 44.8419 45.359 44.5392 44.6959C44.0059 43.514 44.5536 42.6347 45.1014 42.1157C45.5915 41.6545 46.096 41.4238 46.9897 41.2797L47.1626 41.2509L47.0041 40.04L46.8311 40.0545C45.8365 40.1121 44.9428 40.5013 44.1932 41.222C43.4437 41.9428 43.0401 42.75 42.968 43.6869C42.8383 45.0419 43.4149 46.368 44.6978 47.723C45.8653 48.9338 46.9753 49.5537 48.2005 49.6257C49.3104 49.6978 50.3771 49.2798 51.2708 48.4293C51.9915 47.7374 52.5537 46.8005 52.7555 45.9788L52.7843 45.8779L49.541 42.4761L46.9176 44.941Z" fill="white"/>
<path d="M59.4871 39.5354L55.0907 32.8038L54.9321 32.9047L53.8366 33.6255L58.2475 40.3859C58.7664 41.1787 58.9394 41.5535 58.9682 41.8706C59.0114 42.2454 58.8529 42.7355 58.5502 43.1391L58.406 43.3409L59.6024 43.7445L59.6889 43.6436C60.1934 42.9949 60.4529 42.2886 60.4097 41.6256C60.3808 41.2075 60.2511 40.8039 60.0205 40.4003L59.4871 39.5354Z" fill="white"/>
<path d="M64.4888 27.7441L63.3068 28.2774L67.4005 37.2289L68.7411 36.6234L64.6473 27.672L64.4888 27.7441Z" fill="white"/>
<path d="M91.8332 21.301L91.6602 21.3154L90.3629 21.4308L90.9107 28.047C90.9827 28.9119 90.9395 29.2146 90.7233 29.575C90.5071 29.9354 89.9737 30.166 89.253 30.2236C88.2728 30.3101 87.6386 29.993 87.4368 29.3588C87.3647 29.0993 87.2782 28.5516 87.235 27.9606L86.716 21.7335L85.2313 21.8632L85.7935 28.638C85.88 29.7191 85.9809 29.9209 86.2259 30.3534C86.7881 31.2903 87.7971 31.6939 89.3106 31.5642C90.4782 31.4633 91.271 31.1606 91.8476 30.5696C92.4242 29.9786 92.5395 29.4597 92.4242 28.047L91.8332 21.301Z" fill="white"/>
<path d="M105.801 27.5712C105.801 27.5712 105.7 28.6523 105.614 29.4739C105.441 28.8973 105.282 28.3063 105.282 28.3063L102.947 21.7909L101.347 21.5747L101.318 21.7621L100.006 31.3045L101.534 31.5208L102.255 25.8991C102.255 25.8991 102.327 25.0342 102.399 24.3135C102.558 24.8036 102.731 25.3225 102.889 25.7693L105.138 32.0253L106.608 32.2271L107.949 22.5117L106.478 22.3099L105.801 27.5712Z" fill="white"/>
<path d="M117.145 25.0634L114.075 34.2166L115.459 34.6779L118.601 25.3516L117.203 24.8904L117.145 25.0634Z" fill="white"/>
<path d="M127.336 36.2201C127.336 36.2201 126.803 36.7534 126.385 37.1714C126.5 36.7534 126.63 36.2201 126.717 35.73L127.927 29.3155L126.515 28.5227L126.472 28.7822L124.655 38.7426L125.866 39.4057L133.578 32.4291L132.223 31.6795L127.336 36.2201Z" fill="white"/>
<path d="M140.771 39.4633C141.016 39.6795 143.697 41.9715 143.697 41.9715L144.706 41.121L140.468 37.4885L140.353 37.6327L134.111 44.912L138.421 48.6166L139.3 47.5931C139.3 47.5931 136.389 45.0994 136.144 44.8688C136.345 44.6382 137.931 42.7787 138.147 42.5336C138.392 42.7498 140.612 44.6526 140.612 44.6526L141.491 43.6291C141.491 43.6291 139.272 41.7264 139.026 41.5246C139.214 41.2796 140.569 39.694 140.771 39.4633Z" fill="white"/>
<path d="M153.499 52.004C153.528 51.2833 153.225 50.577 152.49 49.6256L151.034 47.7373L150.89 47.8526L143.236 53.7194L144.158 54.9013C144.158 54.9013 147.156 52.595 147.488 52.3356C147.546 52.4509 147.632 52.5662 147.632 52.6959C147.632 52.8256 147.603 52.9842 147.56 53.2004C147.402 53.8923 147.128 54.8004 146.724 55.9536L146.104 57.4095L146.162 57.5104L147.243 58.9086L148.151 56.1842L148.353 55.5356L148.555 54.9013C148.627 54.6275 148.713 54.2527 148.771 53.8491C149.218 54.3392 149.737 54.6707 150.342 54.7428C151.048 54.8293 151.769 54.6131 152.432 54.1085C153.326 53.4022 153.484 52.4941 153.499 52.004ZM150.198 53.3157C149.766 53.2581 149.376 52.9554 148.886 52.3211C148.886 52.3211 148.555 51.9031 148.382 51.6725C148.627 51.4851 150.645 49.9283 150.89 49.7409C151.048 49.9427 151.438 50.4617 151.438 50.4617C151.726 50.822 151.884 51.1391 151.985 51.4563C152.014 51.5572 152.029 51.6581 152.029 51.7734C152.029 52.177 151.827 52.6094 151.481 52.8689C151.02 53.2148 150.573 53.3734 150.198 53.3157Z" fill="white"/>
<path d="M157.275 67.673C157.521 67.1252 157.564 66.5919 157.42 65.6549L157.261 64.5306C157.074 63.291 157.376 62.8729 157.881 62.6423C158.227 62.4693 158.558 62.4549 158.861 62.5558C159.25 62.7 159.596 63.0459 159.856 63.5792C160.187 64.2711 160.245 64.8477 160.115 65.9L160.086 66.0874L161.398 66.2171L161.427 66.0441C161.6 64.9198 161.456 63.9252 160.994 62.9594C160.562 62.0657 159.899 61.4171 159.106 61.1432C158.414 60.8981 157.679 60.9558 156.973 61.2873C156.396 61.5612 155.964 62.0081 155.748 62.5846C155.546 63.1324 155.575 63.6657 155.704 64.5594L155.863 65.5396C156.036 66.6351 155.791 67.3126 155.099 67.6442C154.638 67.8604 154.205 67.846 153.744 67.6153C153.326 67.3991 153.095 67.1252 152.807 66.5198C152.403 65.6838 152.302 64.9054 152.461 63.9829L152.49 63.781L151.092 63.6801L151.077 63.8531C150.962 64.9919 151.135 66.0153 151.639 67.0532C152.029 67.8604 152.475 68.3937 153.153 68.7973C154.09 69.3451 155.099 69.4171 155.949 69.0135C156.526 68.7829 157.03 68.264 157.275 67.673Z" fill="white"/>
<path d="M165.189 74.5916L165.002 74.6348L155.69 77.1862L156.079 78.6132L165.578 76.0042L165.189 74.5916Z" fill="white"/>
<path d="M157.809 88.0119L157.953 89.4677C157.953 89.4677 166.083 88.6893 166.429 88.6605C166.457 88.9776 166.674 91.2119 166.674 91.2119L168 91.1831L167.366 84.5668L167.178 84.5812L166.039 84.6965C166.039 84.6965 166.256 86.9163 166.284 87.2191C165.939 87.2335 157.809 88.0119 157.809 88.0119Z" fill="white"/>
<path d="M167.812 100.639L168 98.837L167.711 98.9523C167.711 98.9523 161.83 101.316 161.744 101.36C161.657 101.345 157.866 100.942 157.866 100.942L157.708 102.47C157.708 102.47 161.426 102.873 161.513 102.873C161.585 102.931 167.149 106.707 167.149 106.707L167.336 105.006L163.834 102.743C163.834 102.743 163.459 102.513 163.156 102.325C163.488 102.21 163.906 102.08 163.906 102.08L167.812 100.639Z" fill="white"/>
<path d="M35.0112 124.812C35.0112 125.893 34.1319 126.772 33.0508 126.772C31.9697 126.772 31.0904 125.893 31.0904 124.812C31.0904 123.731 31.9697 122.852 33.0508 122.852C34.1319 122.852 35.0112 123.731 35.0112 124.812Z" fill="white"/>
<path d="M157.996 124.812C157.996 125.893 157.117 126.772 156.036 126.772C154.955 126.772 154.075 125.893 154.075 124.812C154.075 123.731 154.955 122.852 156.036 122.852C157.117 122.852 157.996 123.731 157.996 124.812Z" fill="white"/>
<rect x="1" y="1" width="187" height="189" rx="93.5" stroke="white" stroke-opacity="0.3" stroke-width="2"/>
</svg>
